<svg width="24" height="24" viewBox="0 0 24 24" fill="#ffffff" xmlns="http://www.w3.org/2000/svg">
<path fill-rule="evenodd" clip-rule="evenodd" d="M12 1.5C7.30558 1.5 3.5 5.30558 3.5 10C3.5 13.299 5.63287 16.4271 7.86298 18.7811C8.96781 19.9473 10.0743 20.9004 10.9052 21.562C11.3203 21.8925 11.6655 22.1495 11.906 22.3232C11.9394 22.3473 11.9708 22.3698 12 22.3906C12.0292 22.3698 12.0606 22.3473 12.094 22.3232C12.3345 22.1495 12.6797 21.8925 13.0948 21.562C13.9257 20.9004 15.0322 19.9473 16.137 18.7811C18.3671 16.4271 20.5 13.299 20.5 10C20.5 5.30558 16.6944 1.5 12 1.5ZM12 23C11.7226 23.416 11.7225 23.4159 11.7223 23.4158L11.7218 23.4155L11.7201 23.4143L11.7144 23.4105L11.6933 23.3962C11.675 23.3838 11.6485 23.3657 11.6142 23.3419C11.5458 23.2945 11.4464 23.2248 11.3205 23.1339C11.0689 22.9521 10.711 22.6856 10.2823 22.3443C9.42567 21.6621 8.28219 20.6777 7.13702 19.4689C4.86713 17.0729 2.5 13.701 2.5 10C2.5 4.75329 6.75329 0.5 12 0.5C17.2467 0.5 21.5 4.75329 21.5 10C21.5 13.701 19.1329 17.0729 16.863 19.4689C15.7178 20.6777 14.5743 21.6621 13.7177 22.3443C13.289 22.6856 12.9311 22.9521 12.6795 23.1339C12.5536 23.2248 12.4542 23.2945 12.3858 23.3419C12.3515 23.3657 12.325 23.3838 12.3067 23.3962L12.2856 23.4105L12.2799 23.4143L12.2782 23.4155L12.2777 23.4158C12.2775 23.4159 12.2774 23.416 12 23ZM12 23L12.2774 23.416C12.1094 23.528 11.8906 23.528 11.7226 23.416L12 23Z" fill="#ffffff"/>
<path fill-rule="evenodd" clip-rule="evenodd" d="M8.5 10C8.5 8.067 10.067 6.5 12 6.5C13.933 6.5 15.5 8.067 15.5 10C15.5 11.933 13.933 13.5 12 13.5C10.067 13.5 8.5 11.933 8.5 10ZM12 7.5C10.6193 7.5 9.5 8.61929 9.5 10C9.5 11.3807 10.6193 12.5 12 12.5C13.3807 12.5 14.5 11.3807 14.5 10C14.5 8.61929 13.3807 7.5 12 7.5Z" fill="#ffffff"/>
</svg>
