<svg width="24" height="24" viewBox="0 0 24 24" fill="ffffff" xmlns="http://www.w3.org/2000/svg">
<path fill-rule="evenodd" clip-rule="evenodd" d="M13.5601 5.90435C13.613 5.63331 13.8756 5.45647 14.1466 5.50935C16.3444 5.93815 18.0628 7.65656 18.4916 9.85435C18.5445 10.1254 18.3677 10.388 18.0966 10.4408C17.8256 10.4937 17.563 10.3169 17.5101 10.0458C17.1593 8.24765 15.7533 6.84168 13.9551 6.49084C13.6841 6.43796 13.5072 6.17538 13.5601 5.90435Z" fill="#ffffff"/>
<path fill-rule="evenodd" clip-rule="evenodd" d="M13.5539 1.94484C13.5844 1.67038 13.8316 1.47261 14.106 1.5031C18.5178 1.99321 22.002 5.47309 22.4977 9.88421C22.5285 10.1586 22.3311 10.4061 22.0567 10.4369C21.7822 10.4678 21.5348 10.2703 21.504 9.99588C21.0605 6.04908 17.943 2.93551 13.9956 2.49699C13.7212 2.4665 13.5234 2.21929 13.5539 1.94484Z" fill="#ffffff"/>
<path fill-rule="evenodd" clip-rule="evenodd" d="M0.528596 5.62795C0.296636 3.78205 1.87667 2.5 3.57358 2.5H7.16525C7.89018 2.5 8.51138 3.01844 8.64106 3.73167L9.24739 7.06653C9.42851 8.06268 9.16938 9.08845 8.53689 9.87906L7.8135 10.7833C7.68459 10.9444 7.6728 11.1581 7.77238 11.3205C8.24195 12.0862 9.08662 13.3797 9.85338 14.1464C10.6201 14.9132 11.9137 15.7579 12.6794 16.2274C12.8417 16.327 13.0554 16.3152 13.2165 16.1863L14.1208 15.4629C14.9114 14.8304 15.9371 14.5713 16.9333 14.7524L20.2682 15.3588C20.9814 15.4885 21.4998 16.1096 21.4998 16.8346V20.1816C21.4998 22.0032 20.0489 23.624 18.1151 23.313C14.8025 22.7803 10.0674 21.0768 6.13343 16.8402C2.30838 12.7209 0.891357 8.51475 0.528596 5.62795ZM3.57358 3.5C2.30907 3.5 1.38352 4.41084 1.52079 5.50326C1.85909 8.19537 3.19248 12.2034 6.86622 16.1598C10.6157 20.1977 15.1287 21.8199 18.2739 22.3257C19.4683 22.5178 20.4998 21.5285 20.4998 20.1816V16.8346C20.4998 16.5929 20.327 16.3859 20.0893 16.3426L16.7544 15.7363C16.0429 15.6069 15.3102 15.792 14.7455 16.2438L13.8412 16.9672C13.3634 17.3495 12.6917 17.4081 12.1566 17.0799C11.3934 16.6119 10.006 15.7133 9.14627 14.8536C8.28654 13.9938 7.38794 12.6064 6.91992 11.8433C6.59172 11.3081 6.65036 10.6364 7.03263 10.1586L7.75602 9.25437C8.2078 8.68964 8.39289 7.95695 8.26352 7.24541L7.65719 3.91056C7.61396 3.67281 7.40689 3.5 7.16525 3.5H3.57358Z" fill="#ffffff"/>
</svg>
